<?xml version="1.0" encoding="UTF-8"?>
<svg width="48" height="48" viewBox="0 0 48 48" fill="none" xmlns="http://www.w3.org/2000/svg">
    <circle cx="24" cy="24" r="20" fill="#2ecc71"/>
    <path d="M24 12C28.4183 12 32 15.5817 32 20C32 24.4183 28.4183 28 24 28C19.5817 28 16 24.4183 16 20C16 15.5817 19.5817 12 24 12Z" fill="#fff"/>
    <path d="M24 32C28.4183 32 32 35.5817 32 40C32 44.4183 28.4183 48 24 48C19.5817 48 16 44.4183 16 40C16 35.5817 19.5817 32 24 32Z" fill="#fff"/>
    <path d="M24 12C28.4183 12 32 15.5817 32 20C32 24.4183 28.4183 28 24 28C19.5817 28 16 24.4183 16 20C16 15.5817 19.5817 12 24 12Z" fill="#00b894"/>
    <path d="M24 32C28.4183 32 32 35.5817 32 40C32 44.4183 28.4183 48 24 48C19.5817 48 16 44.4183 16 40C16 35.5817 19.5817 32 24 32Z" fill="#00b894"/>
</svg>
