<?xml version="1.0" encoding="UTF-8"?>
<svg width="48" height="48" viewBox="0 0 48 48" fill="none" xmlns="http://www.w3.org/2000/svg">
    <!-- 背景の円 -->
    <circle cx="24" cy="24" r="18" fill="#fff" stroke="#2ecc71" stroke-width="2"/>
    
    <!-- サプリメントの形 -->
    <path d="M24 12C28.4183 12 32 15.5817 32 20C32 24.4183 28.4183 28 24 28C19.5817 28 16 24.4183 16 20C16 15.5817 19.5817 12 24 12Z" fill="#2ecc71"/>
    <path d="M24 32C28.4183 32 32 35.5817 32 40C32 44.4183 28.4183 48 24 48C19.5817 48 16 44.4183 16 40C16 35.5817 19.5817 32 24 32Z" fill="#2ecc71"/>
    
    <!-- 目 -->
    <circle cx="18" cy="24" r="2" fill="#2d3436"/>
    <circle cx="30" cy="24" r="2" fill="#2d3436"/>
    
    <!-- 口 -->
    <path d="M21 30 C24 33 28 33 31 30" stroke="#2d3436" stroke-width="1.5" stroke-linecap="round"/>
    
    <!-- チェックマーク -->
    <path d="M24 32C28.4183 32 32 35.5817 32 40C32 44.4183 28.4183 48 24 48C19.5817 48 16 44.4183 16 40C16 35.5817 19.5817 32 24 32Z" fill="#fff"/>
    <path d="M18 36 L22 40 L28 32" stroke="#2ecc71" stroke-width="2" stroke-linecap="round" stroke-linejoin="round"/>
</svg>
